<?xml version="1.0" encoding="utf-8"?>
<!-- Generator: Adobe Illustrator 27.9.0, SVG Export Plug-In . SVG Version: 6.00 Build 0)  -->
<svg version="1.1" id="レイヤー_1" xmlns="http://www.w3.org/2000/svg" xmlns:xlink="http://www.w3.org/1999/xlink" x="0px"
	 y="0px" width="154.4px" height="30.3px" viewBox="0 0 154.4 30.3" enable-background="new 0 0 154.4 30.3" xml:space="preserve">
<g id="レイヤー_2_00000138533403384538835400000005712371341989973408_">
	<g id="top">
		<path fill="#004191" d="M8.1,24.9h1.1L8,29.2h2.6l-0.3,0.9H6.6L8.1,24.9z"/>
		<path fill="#004191" d="M16.2,25.8h-2.8L13.1,27h2.6l-0.3,0.9h-2.6l-0.4,1.4h2.9l-0.3,0.9h-4l1.5-5.2h3.8L16.2,25.8z"/>
		<path fill="#004191" d="M19,24.9h1.2l0.4,5.2h-1.2v-1.1h-2l-0.7,1.1h-1.2L19,24.9z M18,28.2h1.3l-0.1-2.1L18,28.2z"/>
		<path fill="#004191" d="M25.9,25c0.3,0.1,0.6,0.4,0.7,0.7c0.1,0.3,0.2,0.6,0.1,0.9c0,0.3-0.1,0.6-0.1,0.9
			c-0.2,0.7-0.5,1.3-0.9,1.8c-0.5,0.6-1.2,1-2,1h-2.3l1.5-5.2h2.3C25.4,24.9,25.7,24.9,25.9,25z M23.7,25.8l-1,3.4h1
			c0.5,0,1-0.3,1.3-0.8c0.2-0.3,0.4-0.6,0.4-1c0.1-0.4,0.2-0.8,0.1-1.2c-0.1-0.3-0.4-0.4-0.9-0.4H23.7z"/>
		<polygon fill-rule="evenodd" clip-rule="evenodd" fill="#004191" points="0,30.3 4.1,30.3 12.5,0.1 8.4,0.1 		"/>
		<path fill-rule="evenodd" clip-rule="evenodd" fill="#13B3E7" d="M31.1,9c0,0,0-0.1,0-0.1c-0.6-1.5-0.8-3.1-0.5-4.6
			C30.9,2.6,31.7,1.1,33,0H15.1l-2.3,9H31.1z"/>
		<path fill-rule="evenodd" clip-rule="evenodd" fill="#004191" d="M12,11.6l-2.4,9.1h15.1c2.2,0,4.4-0.9,5.9-2.5
			c1.7-1.8,1.7-4.2,1.4-6.6L12,11.6z"/>
		<path fill="#004191" d="M47.2,27.9H42l7-25.3h5.3L47.2,27.9z"/>
		<path fill="#004191" d="M64.1,2.5h5.3l-5.8,20.8h12.5l-1.3,4.6H57L64.1,2.5z"/>
		<path fill="#004191" d="M103.4,7H90l-1.5,5.4h12.3l-1.2,4.4H87.3l-1.8,6.5h14l-1.3,4.6H79l7.1-25.3h18.6L103.4,7z"/>
		<path fill="#004191" d="M117.1,2.5h6l1.9,25.3h-5.7l-0.2-5.2h-9.3l-3.2,5.2h-5.5L117.1,2.5z M112.3,18.3h6.4l-0.4-10L112.3,18.3z"
			/>
		<path fill="#004191" d="M150.2,3.1c1.6,0.5,2.8,1.7,3.4,3.2c0.5,1.3,0.8,2.7,0.7,4.1c-0.1,1.4-0.3,2.8-0.7,4.2
			c-0.8,3.1-2.3,6.1-4.4,8.6c-2.4,3-6,4.7-9.8,4.7h-10.9l7.1-25.3h10.9C147.8,2.5,149,2.7,150.2,3.1z M139.5,6.9l-4.6,16.5h4.9
			c2.5,0,4.6-1.2,6.3-3.7c1-1.5,1.7-3.1,2.1-4.8c0.7-2.6,0.9-4.6,0.4-5.9s-1.8-2.1-4.2-2.1H139.5z"/>
	</g>
</g>
</svg>
